<?xml version="1.0" encoding="utf-8"?>
<!-- Generator: Adobe Illustrator 16.0.4, SVG Export Plug-In . SVG Version: 6.00 Build 0)  -->
<!DOCTYPE svg PUBLIC "-//W3C//DTD SVG 1.1//EN" "http://www.w3.org/Graphics/SVG/1.1/DTD/svg11.dtd">
<svg version="1.1" id="Ebene_1" xmlns="http://www.w3.org/2000/svg" xmlns:xlink="http://www.w3.org/1999/xlink" x="0px" y="0px"
	 width="48px" height="48px" viewBox="0 0 48 48" enable-background="new 0 0 48 48" xml:space="preserve">
<path fill="#F4F4F4" d="M26.18,24.227c-0.012-1.784-0.076-5.88,4.039-5.88c4.029,0,4.038,4.096,4.041,5.88
	c0.002,2.438,0,9.754,0,9.754h1.932c0.103-0.078,0.191-0.169,0.286-0.245c1.085-0.865,1.667-1.664,2.146-2.758V22.42
	c0-2.972,0-8.403-8.404-8.403c-6.219,0-6.221,3.675-6.221,3.675c0-0.002-0.001-3.675-6.219-3.675c-8.403,0-8.403,5.431-8.403,8.403
	v7.642c0.551,1.792,1.383,2.742,2.342,3.92h2.022v-9.756c0-1.783-0.018-5.879,4.04-5.879c4.037,0,4.037,4.096,4.037,5.879
	c0,2.439,0,9.756,0,9.756c0.535,6.356,6.492,7.476,7.13,7.614c4.476,0.965,10.95-0.029,13.786-2.595
	c4.686-4.239,5.267-9.325,5.267-15.002C47.999,10.745,37.255,0,24,0S0.001,10.745,0.001,23.999c0,7.122,3.102,13.519,8.029,17.914
	c4.029,3.594,12.698,6.158,19.751,6.085l-2.254-3.345c-4.51-0.509-11.514-3.18-14.772-6.159c-3.927-3.59-6.39-8.754-6.39-14.495
	C4.365,13.155,13.155,4.364,24,4.364s19.636,8.791,19.636,19.635c0,4.556,0,7.999-4.155,12.081
	c-1.612,1.583-5.607,2.033-9.223,1.426c-2.04-0.344-4.021-1.58-4.078-3.524C26.17,33.6,26.18,24.227,26.18,24.227z"/>
</svg>
